PathFileType	4	(X/Y/Z)	C:\Github\BTS_project\Data\sports2d_results\Single_Hop4 Exam_2026-03-06_123833_tvc2_Sports2D\Single_Hop4 Exam_2026-03-06_123833_tvc2_Sports2D_px_person00.trc
DataRate	CameraRate	NumFrames	NumMarkers	Units	OrigDataRate	OrigDataStartFrame	OrigNumFrames
30.0	30.0	11	22	m	30.0	208	278
Frame#	Time	Hip			RHip			RKnee			RAnkle			RBigToe			RSmallToe			RHeel			LHip			LKnee			LAnkle			LBigToe			LSmallToe			LHeel			Neck			Head			Nose			RShoulder			RElbow			RWrist			LShoulder			LElbow			LWrist			
		X1	Y1	Z1	X2	Y2	Z2	X3	Y3	Z3	X4	Y4	Z4	X5	Y5	Z5	X6	Y6	Z6	X7	Y7	Z7	X8	Y8	Z8	X9	Y9	Z9	X10	Y10	Z10	X11	Y11	Z11	X12	Y12	Z12	X13	Y13	Z13	X14	Y14	Z14	X15	Y15	Z15	X16	Y16	Z16	X17	Y17	Z17	X18	Y18	Z18	X19	Y19	Z19	X20	Y20	Z20	X21	Y21	Z21	X22	Y22	Z22
208	6.958363417569195	448.30570342423135	753.4797510906462	0.0	406.53846744877404	751.5701958262	0.0	389.47338402785766	886.7983828773779	0.0	401.72712748582336	883.7838934233614	0.0	409.009333075037	927.2239646157866	0.0	389.5977720024408	920.4434648684982	0.0	410.5420982476538	878.3870190497405	0.0	488.4540175126004	760.8886925013294	0.0	483.1114152349149	885.4995229189782	0.0	455.5235435927291	1005.5264678319162	0.0	443.15109159748505	1052.373847021358	0.0	465.04184957708117	1045.9663884366778	0.0	444.56167700203054	1014.6631602733721	0.0	491.9682350597749	614.5443322871383	0.0	523.0309690039343	521.5695622625476	0.0	511.7756720425763	603.4951481020173	0.0	405.8033371304575	608.7673556699884	0.0	329.2115745742588	626.3986777728769	0.0	360.2305265305972	702.2766819811915	0.0	572.0280253590433	631.0554703848098	0.0	615.8910276593217	664.6957014226678	0.0	554.596490548722	709.9935959659867	0.0
209	6.99181708784597	448.30366996316775	751.3549686328957	0.0	406.12505618070884	747.206051516436	0.0	388.6414203438921	882.7830279348981	0.0	402.26871738390184	884.0488994411769	0.0	407.7898804814386	927.5068929813752	0.0	387.4311830398643	918.6450723888407	0.0	410.84266066141043	875.8167979135549	0.0	488.6324815449576	758.1176021298136	0.0	483.44049099777305	882.4642724102417	0.0	456.1987692299483	1005.6692475157372	0.0	442.6148432652361	1051.4115360706037	0.0	464.85880897924284	1044.7248185429264	0.0	446.9898001489479	1014.5573357466343	0.0	490.2636192248583	611.8385582269512	0.0	525.1413405666167	514.4576642749114	0.0	512.7017213172605	595.4611282419562	0.0	407.8339652470803	602.2323729379536	0.0	328.7734385952201	620.4889853293408	0.0	359.8887128464427	699.2406357172105	0.0	570.6797778918765	625.4414066747486	0.0	613.9791666179042	658.9007941806941	0.0	548.0754482415088	708.1014210798315	0.0
210	7.025270758122745	447.95662029782073	749.1303168966394	0.0	405.5278755799869	743.1350781963333	0.0	388.283761592989	879.7367459486414	0.0	401.7625751114185	882.9415019505741	0.0	406.8883346959059	926.9997747244689	0.0	385.59297852832196	917.0683553041549	0.0	409.6084321857518	872.507858230879	0.0	488.3278493300824	754.8933282196977	0.0	483.13499536498955	880.3628758388155	0.0	456.1389613257059	1005.4342680719468	0.0	441.9773151980904	1049.9076099866095	0.0	464.99777465855277	1044.6273323401279	0.0	448.1868899342896	1013.8863468832669	0.0	489.5168689315084	607.4219245977552	0.0	526.017754618257	507.6645580426382	0.0	513.6752587110549	587.248276929424	0.0	409.30095791463856	595.2569398419921	0.0	328.885824292578	614.7837095688735	0.0	359.07161265999923	694.9645610771195	0.0	568.648409718152	618.3013878789286	0.0	613.0939062712024	653.92681042731	0.0	543.7389356041913	704.9439528844218	0.0
211	7.05872442839952	447.37266059409944	745.9711308731189	0.0	404.7910123403344	739.5904613542091	0.0	387.98862557152404	877.7278773463288	0.0	401.37938085974383	880.2557725528744	0.0	406.8713835583827	926.1165902200344	0.0	384.8338538169502	915.8015254949679	0.0	408.7077382013665	868.9809273515222	0.0	487.77156553989704	750.8843443596522	0.0	482.7360617184979	878.5758026842167	0.0	455.7083640465768	1004.4941027873169	0.0	441.750987856092	1048.6736355745934	0.0	465.6244096736707	1044.452266104352	0.0	448.38334529543823	1013.7481119720605	0.0	489.34726429018326	602.0356554144544	0.0	525.8546370881114	499.6424622180872	0.0	513.6662272253315	578.620238486225	0.0	409.3410356417211	588.5100410371999	0.0	329.1649575408842	610.7251109136433	0.0	358.145116125895	690.5757313141307	0.0	567.0481610260472	610.6575828795183	0.0	612.5663486258147	649.6515439481763	0.0	542.2919640401404	700.6011533815172	0.0
212	7.092178098676295	446.9822053453005	742.1889100798483	0.0	404.49492630481825	736.989300550214	0.0	387.27047279223683	874.821983526397	0.0	401.2945341922995	877.4400070062705	0.0	407.10103905196104	924.942757076547	0.0	384.7840679989789	914.5074373036239	0.0	408.5524694604685	866.0733387333419	0.0	487.09700837420814	747.8752310047593	0.0	482.2893849097929	877.0150535130534	0.0	455.3119784132281	1003.2057296565791	0.0	441.5561538421125	1048.2938506888677	0.0	466.09926372193286	1044.1306111320364	0.0	447.8144411222063	1013.13711669484	0.0	489.774464499402	593.902539859803	0.0	524.2027558052198	491.5965619149331	0.0	513.0015051339265	570.0482923582283	0.0	408.52420035481634	582.3247897922068	0.0	329.43290418537026	607.3459528828424	0.0	357.63688987942055	686.7089503479971	0.0	566.9717551178973	604.4397673896682	0.0	611.7558334947264	646.578392558906	0.0	542.429446474293	696.6900067212871	0.0
213	7.1256317689530695	447.1213773949883	738.4980331878779	0.0	404.7633680350043	734.5192209384828	0.0	386.14668182365835	870.3062688528948	0.0	400.85493034334615	875.8226056487158	0.0	406.7873064745588	923.2163258331227	0.0	384.6299581255269	912.8655397549387	0.0	408.6038141111094	864.1641151813525	0.0	486.7023679271107	746.2058456146499	0.0	481.53950245753526	875.7496239595348	0.0	455.1658908807061	1002.2178057261497	0.0	441.45093889485196	1048.2047619328073	0.0	466.51940412668154	1043.7689604258028	0.0	447.1046266469434	1011.4405445255841	0.0	490.20723479149433	584.1353583531204	0.0	521.7171017876337	484.30778842497944	0.0	512.3228051107791	561.7863959338667	0.0	407.9286331895645	576.2055813312346	0.0	329.53893466274286	602.6823951580279	0.0	357.4397029373921	683.168949645843	0.0	567.813119108514	599.2831549515095	0.0	610.6182705780037	644.0739679981014	0.0	542.3677882813049	694.1055421538865	0.0
214	7.159085439229845	447.43840098740884	734.7112009275736	0.0	404.82724155703556	730.6014802197335	0.0	385.1078534004077	865.9499362245423	0.0	400.2830002309885	874.870612359897	0.0	405.95510024461066	921.8767599122273	0.0	383.90696340490615	911.7020885694487	0.0	408.90327351316824	863.1337036257376	0.0	486.6301405054901	743.5047768206391	0.0	480.8227239097466	874.04090659227	0.0	455.5426687392934	1001.2376687610785	0.0	442.32844592337557	1048.0776823185797	0.0	467.6803947657888	1042.4235875225847	0.0	447.52898958018363	1010.0335658623466	0.0	489.9361921895172	576.2646788567292	0.0	519.8926403307994	476.02092004501264	0.0	511.5740239253874	553.0398463375127	0.0	407.93012367483414	569.7092406537191	0.0	329.4816281398438	596.4563228152892	0.0	357.2475025157126	679.6004940949952	0.0	568.1828148077025	593.2109858823201	0.0	609.6583525122307	640.8207318214345	0.0	541.924882282076	692.110214646649	0.0
215	7.19253910950662	447.2086697043504	730.7801181408065	0.0	404.1758034225322	725.6651633472707	0.0	384.4130139312666	862.8895727544871	0.0	400.49851182451926	873.3207622547714	0.0	404.9260987202637	922.0939445612194	0.0	382.8710004364178	911.7204948150398	0.0	410.02549256193043	862.4078503988595	0.0	486.4769428444745	739.0030100695526	0.0	480.7421185925164	871.6029306879941	0.0	456.34065793582266	999.8550338211794	0.0	444.06782040517214	1048.228977152286	0.0	469.0924752491817	1040.2228258371233	0.0	449.1997803894687	1009.76652218276	0.0	489.14782554759756	570.3756512450614	0.0	518.926054438467	465.989791085839	0.0	510.8080033770348	542.8959360842243	0.0	408.2425571156166	562.8461003668493	0.0	329.5811279715226	590.0070242011282	0.0	357.00422809817235	675.3298600853825	0.0	567.4775342705113	585.5393170178863	0.0	609.3987426430987	636.3015493718796	0.0	541.9431736381425	689.5594988707396	0.0
216	7.225992779783395	446.48691945029753	727.520757818687	0.0	403.384694213168	721.6530546054371	0.0	383.4327389449699	859.5032476266224	0.0	402.06576831026223	871.0166911622613	0.0	404.0354363574587	923.2781924884213	0.0	382.2049022425058	911.9329292805315	0.0	412.15662301128197	860.7340325207294	0.0	486.1951525097935	734.8494284620766	0.0	480.7822111189261	869.6943585698367	0.0	456.82468496047727	998.9105957683189	0.0	445.01385413358105	1048.6206688884754	0.0	469.31997451687675	1039.0240991842663	0.0	450.51154686485654	1009.5409549610303	0.0	488.46618565007446	563.733971603166	0.0	517.8877103228987	456.13445722661663	0.0	510.2542203589492	531.911289752602	0.0	408.50771833825524	555.7654819366862	0.0	329.99525343957276	584.5426997920247	0.0	356.774606582636	669.7054827742296	0.0	566.0319633802126	577.2970261908289	0.0	609.9208922145078	630.5367854658731	0.0	542.9639812602744	685.8391196103876	0.0
217	7.25944645006017	446.0124201155884	725.1387731580867	0.0	403.2551343344505	718.9600412749384	0.0	381.6132650831188	854.5856460889665	0.0	404.54949284175314	868.5216124276255	0.0	403.6555269976027	924.1106577007592	0.0	382.38888116979217	911.3771979270159	0.0	414.692417952491	857.6006307431796	0.0	486.13382366456034	732.2263901903193	0.0	479.78249575672385	869.1847514242264	0.0	456.5299920145949	998.9960965452386	0.0	444.14719671266766	1048.8751966884658	0.0	468.19629082986285	1040.3333260400866	0.0	450.40954546159094	1008.4589991954614	0.0	488.3970682570411	555.354160137138	0.0	516.337481683731	447.8002048125902	0.0	509.63539785918954	521.530405946595	0.0	408.57225077049594	548.7223102462419	0.0	330.29530533535524	580.1693403529893	0.0	356.62062671328226	663.3060593204073	0.0	564.5872229589525	569.6616749775642	0.0	610.6926447693288	624.1301971078044	0.0	544.6443225691843	681.2792249723244	0.0
218	7.292900120336944	445.9755418959331	722.655632946532	0.0	403.5750303679484	716.0949539377823	0.0	379.5824591541873	850.0820159493701	0.0	406.33446951108476	866.7078919179842	0.0	403.2555986662099	924.2507981853023	0.0	382.90083554661726	910.4997222812615	0.0	416.47404445435416	855.0166488831726	0.0	486.31603339554846	729.7943455319755	0.0	477.9805710179279	868.83675829752	0.0	455.9245478128253	999.0501051213905	0.0	442.71402772036095	1048.650682547309	0.0	467.1087886675152	1043.2159301428687	0.0	450.03526432380096	1007.427675332985	0.0	488.83119904201357	546.8186475345346	0.0	514.9257797682744	439.76951608605236	0.0	508.7076567137574	512.1274065882282	0.0	408.4450568117602	541.9047889847437	0.0	330.0355311629098	576.0547204407669	0.0	356.5673030440938	657.6306313567163	0.0	563.6523057316303	562.8263963425798	0.0	611.1416628233864	618.7024364049556	0.0	545.7923951534414	677.143406420322	0.0
